# Blender v2.81 (sub 16) OBJ File: ''
# www.blender.org
mtllib Worm_Eyes.mtl
o Inst3D_RefRep.225
v 0.123863 3.665337 1.223472
v 0.057610 3.273797 1.142383
v 0.398953 3.218291 1.121276
v -0.399409 3.217429 1.121975
v -0.055019 3.273431 1.143270
v -0.121863 3.668467 1.225084
v 0.244845 2.745370 0.934201
v 0.427758 2.856154 0.878338
v -0.428472 2.852058 0.876867
v -0.243925 2.740285 0.933229
v 0.727332 3.548852 0.893138
v 0.639476 3.152209 0.854954
v -0.642081 3.150757 0.853275
v -0.730721 3.550942 0.891799
v 0.596269 3.698330 1.004613
v -0.598487 3.701754 1.004270
v 0.341342 3.739190 1.175690
v -0.341284 3.742979 1.176875
v 0.110900 2.833427 0.991377
v -0.108785 2.829128 0.990916
v 0.698527 3.156125 0.792762
v 0.822390 3.570552 0.847275
v -0.826627 3.572835 0.845527
v -0.701659 3.154708 0.790527
v 0.479607 2.786475 0.847133
v -0.480784 2.781757 0.845384
v 0.663961 3.776931 1.033977
v -0.666784 3.781057 1.033896
v 0.360066 3.823962 1.221453
v -0.360175 3.828509 1.223046
v 0.000000 3.896669 1.280865
v 0.003106 3.901864 1.282989
v 0.000000 3.707680 1.313793
v 0.003106 3.711187 1.316211
v 0.263568 2.688638 0.977057
v -0.262816 2.683047 0.976468
v 0.000000 3.292392 1.234810
v 0.000000 2.866720 1.091936
v 0.003106 2.862718 1.092371
v 0.003106 3.292192 1.236522
vt 0.746000 0.810000
vt 0.837000 0.497000
vt 0.541000 0.470000
vt 0.541000 0.470000
vt 0.837000 0.497000
vt 0.746000 0.810000
vt 0.653000 0.122000
vt 0.474000 0.184000
vt 0.474000 0.184000
vt 0.653000 0.122000
vt 0.180000 0.634000
vt 0.266000 0.372000
vt 0.266000 0.372000
vt 0.180000 0.634000
vt 0.286000 0.789000
vt 0.286000 0.789000
vt 0.534000 0.848000
vt 0.534000 0.848000
vt 0.784000 0.187000
vt 0.784000 0.187000
vt 0.179000 0.332000
vt 0.065000 0.641000
vt 0.065000 0.641000
vt 0.179000 0.332000
vt 0.281000 0.156000
vt 0.281000 0.156000
vt 0.220000 0.888000
vt 0.220000 0.888000
vt 0.533000 0.966000
vt 0.533000 0.966000
vt 0.841000 0.922000
vt 0.841000 0.922000
vt 0.894000 0.826000
vt 0.894000 0.826000
vt 0.672000 0.047000
vt 0.672000 0.047000
vt 0.931000 0.513000
vt 0.894000 0.151000
vt 0.894000 0.151000
vt 0.931000 0.513000
vn 0.3504 -0.1275 0.9279
vn 0.5032 -0.1979 0.8412
vn 0.3859 -0.2649 0.8837
vn -0.3859 -0.2649 0.8837
vn -0.5032 -0.1979 0.8412
vn -0.3504 -0.1275 0.9279
vn 0.4403 0.2477 0.8630
vn 0.4434 -0.2810 0.8511
vn -0.4434 -0.2810 0.8511
vn -0.4403 0.2477 0.8630
vn 0.5171 -0.2351 0.8229
vn 0.6680 -0.2993 0.6813
vn -0.6681 -0.2993 0.6813
vn -0.5171 -0.2351 0.8229
vn 0.4212 -0.3419 0.8400
vn -0.4212 -0.3419 0.8400
vn 0.3312 -0.2780 0.9017
vn -0.3312 -0.2780 0.9017
vn 0.5164 0.1056 0.8498
vn -0.5164 0.1056 0.8498
vn 0.7003 -0.3041 0.6458
vn 0.4901 -0.2788 0.8258
vn -0.4901 -0.2788 0.8258
vn -0.7003 -0.3041 0.6458
vn 0.3721 -0.0858 0.9242
vn -0.3721 -0.0857 0.9242
vn 0.3128 -0.5211 0.7941
vn -0.3128 -0.5211 0.7941
vn 0.2178 -0.5089 0.8328
vn -0.2178 -0.5089 0.8328
vn 0.3855 -0.0734 0.9198
vn -0.3855 -0.0734 0.9198
vn 0.6099 -0.0144 0.7924
vn -0.6099 -0.0144 0.7924
vn 0.4018 0.6357 0.6591
vn -0.4018 0.6357 0.6591
vn 0.8198 -0.1109 0.5618
vn 0.6516 -0.1006 0.7519
vn -0.6515 -0.1006 0.7519
vn -0.8198 -0.1109 0.5618
usemtl RefRep.225_Eyes.png_E_Eyes.png
s 1
f 1/1/1 2/2/2 3/3/3
f 4/4/4 5/5/5 6/6/6
f 3/3/3 7/7/7 8/8/8
f 9/9/9 10/10/10 4/4/4
f 11/11/11 3/3/3 12/12/12
f 13/13/13 4/4/4 14/14/14
f 15/15/15 3/3/3 11/11/11
f 14/14/14 4/4/4 16/16/16
f 17/17/17 3/3/3 15/15/15
f 16/16/16 4/4/4 18/18/18
f 1/1/1 3/3/3 17/17/17
f 18/18/18 4/4/4 6/6/6
f 3/3/3 2/2/2 19/19/19
f 20/20/20 5/5/5 4/4/4
f 12/12/12 21/21/21 22/22/22
f 23/23/23 24/24/24 13/13/13
f 12/12/12 22/22/22 11/11/11
f 14/14/14 23/23/23 13/13/13
f 12/12/12 8/8/8 25/25/25
f 26/26/26 9/9/9 13/13/13
f 12/12/12 25/25/25 21/21/21
f 24/24/24 26/26/26 13/13/13
f 11/11/11 22/22/22 27/27/27
f 28/28/28 23/23/23 14/14/14
f 11/11/11 27/27/27 15/15/15
f 16/16/16 28/28/28 14/14/14
f 15/15/15 27/27/27 29/29/29
f 30/30/30 28/28/28 16/16/16
f 15/15/15 29/29/29 17/17/17
f 18/18/18 30/30/30 16/16/16
f 17/17/17 29/29/29 31/31/31
f 32/32/32 30/30/30 18/18/18
f 31/31/31 1/1/1 17/17/17
f 6/6/6 32/32/32 18/18/18
f 33/33/33 1/1/1 31/31/31
f 6/6/6 34/34/34 32/32/32
f 7/7/7 35/35/35 25/25/25
f 26/26/26 36/36/36 10/10/10
f 7/7/7 25/25/25 8/8/8
f 9/9/9 26/26/26 10/10/10
f 37/37/37 38/38/38 19/19/19
f 20/20/20 39/39/39 40/40/40
f 19/19/19 2/2/2 37/37/37
f 40/40/40 5/5/5 20/20/20
f 12/12/12 3/3/3 8/8/8
f 9/9/9 4/4/4 13/13/13
f 3/3/3 19/19/19 7/7/7
f 10/10/10 20/20/20 4/4/4
f 19/19/19 38/38/38 35/35/35
f 36/36/36 39/39/39 20/20/20
f 19/19/19 35/35/35 7/7/7
f 10/10/10 36/36/36 20/20/20
f 37/37/37 2/2/2 33/33/33
f 34/34/34 5/5/5 40/40/40
f 2/2/2 1/1/1 33/33/33
f 6/6/6 5/5/5 34/34/34
