# Blender v2.81 (sub 16) OBJ File: ''
# www.blender.org
mtllib Worm_Hands.mtl
o Inst3D_RefRep.223
v 1.724601 2.599054 0.351069
v 1.644601 2.692705 0.099622
v 1.718889 2.861071 0.286719
v 1.713326 2.198977 0.422514
v 1.700351 2.063139 0.736223
v 1.362765 2.017514 0.635342
v 1.386534 2.174883 0.360637
v 0.991291 2.231510 0.926728
v 1.296043 1.995932 0.967226
v 1.258798 2.154186 1.148968
v 1.066319 2.303601 1.126826
v 1.216249 2.597617 1.084759
v 1.535967 2.272763 1.087484
v 1.611503 2.405255 0.827449
v 0.877108 2.593642 0.805911
v 1.224324 2.804071 0.700236
v 1.053806 2.715784 0.451049
v 1.672976 2.295998 0.632695
v 1.428487 2.658174 0.423569
v 1.611796 2.523329 0.546469
v 1.644850 2.412761 0.324778
v 1.521008 2.476177 0.333136
v 1.413895 2.493487 0.185479
v 1.319298 2.657235 0.263745
v 0.963783 2.438974 0.479590
v 1.442180 2.867856 0.237493
v 1.551457 2.801600 0.487519
v 1.565145 2.244099 1.366741
v 1.800350 2.282327 1.332347
v 1.648412 2.471521 1.385470
v 0.946777 2.266548 0.682129
v 1.625845 2.162877 0.946114
v 1.571390 2.010366 1.017933
v 1.470640 2.108636 1.143462
v 1.781513 2.088703 1.172994
v 1.571476 2.127204 1.243320
v 1.732708 2.293045 1.059122
v 1.740278 2.443089 1.150397
v 1.546546 2.299179 1.140336
v 1.510835 2.399917 1.196510
v 1.701275 2.487785 1.126837
v 1.955060 2.509078 1.020225
v 1.787620 2.723344 1.073849
v 1.826101 2.456798 0.698175
v 1.679387 2.570086 0.534022
v 2.000666 2.398449 0.506991
v 1.836220 2.511585 0.348308
v 1.852171 2.752332 0.387352
v 2.027050 2.698226 0.585286
v 1.646480 2.753705 0.549622
v 1.753206 2.278997 1.038334
v 1.949748 2.252913 0.885537
v 1.823961 2.446010 0.720519
v 1.822497 2.666489 0.804183
v 1.656424 2.474600 0.871085
v 1.600694 2.647033 0.930716
v 1.861369 2.896843 0.607014
v 1.822998 2.688438 0.764697
v -1.634267 2.466307 1.085282
v -1.606287 2.247462 1.240090
v -1.515820 2.472100 1.338512
v -1.653488 2.809391 0.869707
v -1.323445 2.850650 0.864269
v -1.350691 2.889571 0.551507
v -1.696542 2.813456 0.531673
v -1.019160 2.573163 0.307168
v -1.121018 2.432367 0.164998
v -1.321715 2.564337 0.119103
v -1.337490 2.780427 0.230512
v -1.248103 2.179728 0.340365
v -1.606151 2.461298 0.564957
v -1.578946 2.484285 0.265803
v -0.870149 2.284966 0.536100
v -0.984597 2.312052 0.934444
v -1.186535 2.137570 0.768851
v -1.640602 2.638116 0.709377
v -1.349227 2.381748 0.997518
v -1.436387 2.586666 1.026163
v -1.560236 2.649011 1.029953
v -1.556637 2.462262 0.864433
v -1.307513 2.623675 1.150443
v -0.912073 2.554853 0.788141
v -1.218925 2.441679 1.125244
v -1.325295 2.257140 1.245932
v -1.472292 2.226094 1.008780
v -1.685237 2.355381 -0.000642
v -1.820304 2.172569 0.084312
v -1.903136 2.405755 0.090468
v -0.935185 2.635336 0.534324
v -1.650378 2.639835 0.367144
v -1.616414 2.751356 0.233624
v -1.530662 2.612089 0.140841
v -1.629644 2.530056 0.070139
v -1.818370 2.628532 0.159070
v -1.832333 2.298383 0.303523
v -1.762572 2.467171 0.329320
v -1.596536 2.400690 0.225966
v -1.621850 2.250679 0.202533
v -1.798542 2.252941 0.335375
v -1.916791 2.084463 0.487801
v -2.007406 2.347171 0.487412
v -1.786387 2.459851 0.735994
v -1.910520 2.614225 0.918789
v -1.611395 2.387636 0.901959
v -1.990223 2.330530 0.966827
v -1.783952 2.288459 1.133626
v -1.720271 2.537676 1.077169
v -1.641272 2.172575 0.948362
v -1.776305 2.491511 0.347679
v -1.934635 2.605950 0.510496
v -1.858300 2.228496 0.716738
v -1.787957 2.461644 0.712670
v -1.684786 2.136798 0.552868
v -1.659230 2.351270 0.555537
v -1.852436 2.221330 0.760794
v -1.889358 2.095309 0.989627
vt 0.688000 0.188000
vt 0.688000 0.359000
vt 0.547000 0.188000
vt 0.500000 0.750000
vt 0.656000 0.875000
vt 0.688000 0.750000
vt 0.594000 0.688000
vt 0.844000 0.625000
vt 0.844000 0.813000
vt 0.969000 0.813000
vt 0.938000 0.625000
vt 0.281000 0.250000
vt 0.031000 0.297000
vt 0.141000 0.500000
vt 0.453000 0.188000
vt 0.453000 0.375000
vt 0.516000 0.375000
vt 0.531000 0.906000
vt 0.438000 0.500000
vt 0.313000 0.641000
vt 0.406000 0.688000
vt 0.438000 0.609000
vt 0.547000 0.609000
vt 0.641000 0.453000
vt 0.547000 0.500000
vt 0.672000 0.531000
vt 0.984000 0.187000
vt 0.984000 0.359000
vt 0.984000 0.187000
vt 0.688000 0.188000
vt 0.984000 0.016000
vt 0.688000 0.016000
vt 0.188000 0.625000
vt 0.688000 0.188000
vt 0.688000 0.359000
vt 0.547000 0.188000
vt 0.750000 0.594000
vt 0.031000 0.453000
vt 0.813000 0.922000
vt 0.703000 0.984000
vt 0.813000 0.484000
vt 0.266000 0.125000
vt 0.125000 0.141000
vt 0.016000 0.188000
vt 0.984000 0.188000
vt 0.984000 0.359000
vt 0.828000 0.359000
vt 0.828000 0.188000
vt 0.828000 0.188000
vt 0.688000 0.187000
vt 0.984000 0.188000
vt 0.984000 0.016000
vt 0.828000 0.016000
vt 0.688000 0.016000
vt 0.938000 0.938000
vt 0.688000 0.188000
vt 0.688000 0.359000
vt 0.547000 0.188000
vt 0.984000 0.188000
vt 0.984000 0.359000
vt 0.828000 0.188000
vt 0.984000 0.016000
vt 0.828000 0.016000
vt 0.828000 0.359000
vt 0.828000 0.188000
vt 0.688000 0.188000
vt 0.688000 0.359000
vt 0.688000 0.016000
vt 0.828000 0.188000
vt 0.828000 0.359000
vt 0.828000 0.187000
vt 0.688000 0.188000
vt 0.828000 0.016000
vt 0.688000 0.016000
vt 0.547000 0.188000
vt 0.688000 0.187000
vt 0.984000 0.188000
vt 0.984000 0.359000
vt 0.984000 0.016000
vt 0.688000 0.188000
vt 0.547000 0.188000
vt 0.688000 0.359000
vt 0.500000 0.750000
vt 0.594000 0.688000
vt 0.688000 0.750000
vt 0.656000 0.875000
vt 0.844000 0.625000
vt 0.938000 0.625000
vt 0.969000 0.813000
vt 0.844000 0.813000
vt 0.281000 0.250000
vt 0.141000 0.500000
vt 0.031000 0.297000
vt 0.453000 0.188000
vt 0.516000 0.375000
vt 0.453000 0.375000
vt 0.531000 0.906000
vt 0.438000 0.500000
vt 0.438000 0.609000
vt 0.406000 0.688000
vt 0.313000 0.641000
vt 0.547000 0.609000
vt 0.641000 0.453000
vt 0.672000 0.531000
vt 0.547000 0.500000
vt 0.984000 0.188000
vt 0.984000 0.359000
vt 0.688000 0.188000
vt 0.984000 0.188000
vt 0.688000 0.016000
vt 0.984000 0.016000
vt 0.188000 0.625000
vt 0.688000 0.188000
vt 0.547000 0.188000
vt 0.688000 0.359000
vt 0.750000 0.594000
vt 0.031000 0.453000
vt 0.813000 0.922000
vt 0.703000 0.984000
vt 0.813000 0.484000
vt 0.266000 0.125000
vt 0.016000 0.188000
vt 0.125000 0.141000
vt 0.984000 0.188000
vt 0.828000 0.188000
vt 0.828000 0.359000
vt 0.984000 0.359000
vt 0.688000 0.188000
vt 0.828000 0.187000
vt 0.984000 0.188000
vt 0.828000 0.016000
vt 0.984000 0.016000
vt 0.688000 0.016000
vt 0.938000 0.938000
vt 0.688000 0.188000
vt 0.547000 0.188000
vt 0.688000 0.359000
vt 0.984000 0.359000
vt 0.828000 0.188000
vt 0.828000 0.359000
vt 0.984000 0.016000
vt 0.828000 0.016000
vt 0.984000 0.188000
vt 0.688000 0.359000
vt 0.688000 0.188000
vt 0.828000 0.188000
vt 0.688000 0.016000
vt 0.828000 0.188000
vt 0.828000 0.359000
vt 0.688000 0.188000
vt 0.828000 0.188000
vt 0.688000 0.016000
vt 0.828000 0.016000
vt 0.688000 0.188000
vt 0.547000 0.188000
vt 0.984000 0.188000
vt 0.984000 0.359000
vt 0.984000 0.016000
vn 0.8054 -0.5008 0.3170
vn 0.3864 -0.0388 -0.9215
vn 0.7132 0.7000 -0.0363
vn 0.5497 -0.6869 -0.4754
vn 0.6069 -0.7823 -0.1400
vn -0.1714 -0.9335 -0.3149
vn -0.1781 -0.6863 -0.7051
vn -0.8051 -0.5337 0.2586
vn -0.2846 -0.9294 0.2348
vn -0.2325 -0.3592 0.9038
vn -0.5362 -0.1334 0.8335
vn 0.0327 0.6285 0.7771
vn 0.2232 0.8209 0.5256
vn 0.1445 0.9263 0.3480
vn -0.8897 0.4035 0.2137
vn 0.0886 0.9828 0.1617
vn -0.5589 0.6616 -0.4999
vn 0.9972 -0.0578 0.0469
vn 0.1961 0.8624 0.4668
vn 0.2801 0.9380 0.2041
vn 0.3415 0.2332 -0.9105
vn 0.7632 0.2758 -0.5843
vn -0.1216 -0.2584 -0.9583
vn -0.5688 0.4883 -0.6618
vn -0.7850 -0.1902 -0.5895
vn -0.5147 0.8000 -0.3082
vn -0.0209 0.3988 0.9168
vn -0.5319 -0.3553 0.7686
vn 0.8140 -0.1059 0.5711
vn -0.0287 0.7286 0.6843
vn -0.8022 -0.5492 -0.2341
vn 0.8840 -0.2753 0.3778
vn 0.3381 -0.9250 0.1734
vn -0.2561 -0.4443 0.8585
vn 0.7274 -0.6839 0.0558
vn -0.4711 -0.6518 0.5942
vn 0.5381 0.3225 -0.7787
vn 0.4759 0.7510 -0.4577
vn -0.8700 0.2455 -0.4276
vn -0.8497 0.4599 -0.2577
vn -0.4271 -0.1517 0.8914
vn 0.9071 0.1172 0.4042
vn 0.1288 0.8210 0.5562
vn 0.0831 -0.3470 0.9341
vn -0.9151 0.4016 0.0367
vn 0.8700 -0.4891 -0.0620
vn 0.1971 0.0880 -0.9764
vn 0.1124 0.4911 -0.8638
vn 0.9648 0.2313 0.1253
vn -0.9250 0.3778 -0.0389
vn -0.1269 -0.4810 0.8675
vn 0.8775 -0.4795 0.0093
vn 0.3583 0.2868 -0.8885
vn 0.2807 0.6948 -0.6621
vn -0.9703 0.1154 -0.2123
vn -0.8886 0.4421 -0.1223
vn 0.1322 0.9740 0.1838
vn -0.0850 0.1241 0.9886
vn -0.8659 0.3509 -0.3565
vn -0.6651 -0.6314 0.3988
vn -0.2554 0.3802 0.8889
vn -0.5157 0.8146 0.2655
vn 0.2515 0.9021 0.3505
vn 0.1717 0.9802 -0.0985
vn -0.6213 0.7802 -0.0723
vn 0.7277 0.3785 -0.5720
vn 0.3913 -0.2051 -0.8971
vn 0.0704 -0.0211 -0.9973
vn 0.1993 0.7636 -0.6141
vn -0.1244 -0.8784 -0.4614
vn -0.0938 -0.9938 0.0596
vn 0.0003 -0.9987 -0.0501
vn 0.8633 -0.4696 -0.1847
vn 0.6596 -0.4287 0.6173
vn -0.0665 -0.9676 0.2435
vn -0.9931 0.0542 0.1034
vn -0.2171 -0.9736 -0.0703
vn -0.6464 -0.0264 0.7625
vn -0.1870 0.1682 0.9678
vn -0.1314 -0.9792 0.1546
vn 0.2549 0.5999 0.7583
vn 0.8576 0.3889 0.3365
vn 0.6869 -0.2050 0.6972
vn 0.5932 -0.6308 0.5002
vn -0.0891 -0.7105 -0.6980
vn 0.3453 -0.1088 -0.9322
vn -0.3375 -0.8729 -0.3522
vn -0.8987 0.1333 -0.4176
vn 0.8013 0.5838 -0.1304
vn -0.9438 0.1242 -0.3064
vn -0.4171 0.7868 -0.4550
vn 0.1235 0.1109 -0.9861
vn 0.4454 0.2235 -0.8670
vn -0.6863 0.6984 -0.2027
vn -0.4753 -0.3997 0.7838
vn -0.3079 0.0391 0.9506
vn 0.9111 -0.2618 0.3183
vn 0.7310 -0.6354 0.2487
vn 0.1568 -0.2759 -0.9483
vn -0.4699 -0.8657 -0.1722
vn -0.9864 0.0202 -0.1632
vn -0.2018 -0.0266 -0.9791
vn -0.8177 0.5745 0.0370
vn 0.9042 -0.4168 -0.0933
vn -0.9871 0.0168 0.1591
vn 0.0542 -0.1510 0.9870
vn 0.0569 0.2265 0.9723
vn 0.7842 -0.6205 0.0069
vn 0.0468 0.0930 -0.9946
vn -0.8284 0.5581 -0.0472
vn -0.2217 -0.3455 0.9118
vn -0.1015 0.0717 0.9922
vn 0.7393 -0.6640 0.1118
vn 0.9648 -0.2513 0.0770
vn -0.2321 -0.4403 -0.8673
vn -0.4004 -0.8886 0.2236
usemtl RefRep.223_Hands.png__Hands.png
s 1
f 1/1/1 2/2/2 3/3/3
f 4/4/4 5/5/5 6/6/6
f 4/4/4 6/6/6 7/7/7
f 8/8/8 9/9/9 10/10/10
f 8/8/8 10/10/10 11/11/11
f 12/12/12 13/13/13 14/14/14
f 15/15/15 16/16/16 17/17/17
f 5/5/5 4/4/4 18/18/18
f 19/19/19 20/20/20 21/21/21
f 19/19/19 21/21/21 22/22/22
f 23/23/23 4/4/4 7/7/7
f 17/24/17 24/25/24 23/23/23
f 17/24/17 23/23/23 25/26/25
f 16/16/16 19/19/19 24/25/24
f 16/16/16 24/25/24 17/17/17
f 21/21/21 4/4/4 23/23/23
f 21/21/21 23/23/23 22/22/22
f 22/27/22 23/28/23 2/2/2
f 2/2/2 1/1/1 22/27/22
f 23/28/23 24/29/24 26/30/26
f 23/28/23 26/30/26 2/2/2
f 24/29/24 19/31/19 27/32/27
f 24/29/24 27/32/27 26/30/26
f 22/27/22 1/1/1 19/31/19
f 19/31/19 1/1/1 27/32/27
f 3/3/3 2/2/2 26/30/26
f 27/32/27 3/3/3 26/30/26
f 1/1/1 3/3/3 27/32/27
f 20/20/20 14/14/14 18/33/18
f 28/34/28 29/35/29 30/36/30
f 31/37/31 6/6/6 9/9/9
f 31/37/31 9/9/9 8/8/8
f 14/14/14 13/13/13 32/38/32
f 33/39/33 5/5/5 32/40/32
f 25/26/25 15/41/15 17/24/17
f 8/8/8 15/41/15 31/37/31
f 11/42/11 10/43/10 34/44/34
f 11/42/11 34/44/34 13/13/13
f 11/42/11 13/13/13 12/12/12
f 25/26/25 7/7/7 6/6/6
f 25/26/25 6/6/6 31/37/31
f 31/37/31 15/41/15 25/26/25
f 23/23/23 7/7/7 25/26/25
f 11/11/11 15/41/15 8/8/8
f 34/45/34 33/46/33 35/47/35
f 34/45/34 35/47/35 36/48/36
f 35/47/35 37/49/37 38/50/38
f 35/47/35 38/50/38 29/35/29
f 32/51/32 13/52/13 39/53/39
f 32/51/32 39/53/39 37/49/37
f 13/52/13 34/45/34 36/48/36
f 13/52/13 36/48/36 39/53/39
f 28/34/28 30/36/30 40/54/40
f 30/36/30 29/35/29 38/50/38
f 40/54/40 30/36/30 38/50/38
f 36/48/36 35/47/35 29/35/29
f 36/48/36 29/35/29 28/34/28
f 33/46/33 37/49/37 35/47/35
f 39/53/39 36/48/36 28/34/28
f 39/53/39 28/34/28 40/54/40
f 37/49/37 39/53/39 40/54/40
f 37/49/37 40/54/40 38/50/38
f 9/9/9 6/6/6 5/5/5
f 9/9/9 5/5/5 33/39/33
f 10/10/10 9/9/9 33/39/33
f 10/10/10 33/39/33 34/55/34
f 12/12/12 16/16/16 15/15/15
f 12/12/12 15/15/15 11/42/11
f 41/56/41 42/57/42 43/58/43
f 18/59/18 4/60/4 44/61/44
f 20/62/20 18/59/18 44/61/44
f 20/62/20 44/61/44 45/63/45
f 46/64/46 47/65/47 48/66/48
f 46/64/46 48/66/48 49/67/49
f 47/65/47 45/63/45 50/68/50
f 47/65/47 50/68/50 48/66/48
f 51/69/51 52/70/52 42/57/42
f 51/69/51 42/57/42 41/56/41
f 52/70/52 53/71/53 54/72/54
f 52/70/52 54/72/54 42/57/42
f 53/71/53 55/73/55 56/74/56
f 53/71/53 56/74/56 54/72/54
f 55/73/55 51/69/51 41/56/41
f 55/73/55 41/56/41 56/74/56
f 49/67/49 57/75/57 58/76/58
f 58/76/58 57/75/57 50/68/50
f 49/67/49 48/66/48 57/75/57
f 50/68/50 57/75/57 48/66/48
f 41/56/41 43/58/43 56/74/56
f 43/58/43 42/57/42 54/72/54
f 56/74/56 43/58/43 54/72/54
f 4/60/4 47/65/47 46/64/46
f 21/77/21 20/62/20 45/63/45
f 21/77/21 45/63/45 47/65/47
f 44/61/44 46/64/46 49/67/49
f 44/61/44 49/67/49 58/76/58
f 45/63/45 44/61/44 58/76/58
f 45/63/45 58/76/58 50/68/50
f 5/78/5 53/71/53 52/70/52
f 18/59/18 14/79/14 55/73/55
f 18/59/18 55/73/55 53/71/53
f 14/79/14 32/51/32 51/69/51
f 14/79/14 51/69/51 55/73/55
f 32/51/32 5/78/5 51/69/51
f 16/16/16 20/20/20 19/19/19
f 16/16/16 14/14/14 20/20/20
f 12/12/12 14/14/14 16/16/16
f 44/61/44 4/60/4 46/64/46
f 4/60/4 21/77/21 47/65/47
f 5/78/5 18/59/18 53/71/53
f 51/69/51 5/78/5 52/70/52
f 33/46/33 32/51/32 37/49/37
f 59/80/59 60/81/60 61/82/61
f 62/83/62 63/84/63 64/85/64
f 62/83/62 64/85/64 65/86/65
f 66/87/66 67/88/67 68/89/68
f 66/87/66 68/89/68 69/90/69
f 70/91/70 71/92/71 72/93/72
f 73/94/73 74/95/74 75/96/75
f 76/97/76 62/83/62 65/86/65
f 77/98/77 78/99/78 79/100/79
f 77/98/77 79/100/79 80/101/80
f 81/102/81 63/84/63 62/83/62
f 74/103/74 82/104/82 81/102/81
f 74/103/74 81/102/81 83/105/83
f 75/96/75 74/95/74 83/105/83
f 75/96/75 83/105/83 77/98/77
f 79/100/79 78/99/78 81/102/81
f 79/100/79 81/102/81 62/83/62
f 78/106/78 59/80/59 61/82/61
f 78/106/78 61/82/61 81/107/81
f 81/107/81 61/82/61 84/108/84
f 81/107/81 84/108/84 83/109/83
f 83/109/83 84/108/84 85/110/85
f 83/109/83 85/110/85 77/111/77
f 77/111/77 85/110/85 59/80/59
f 77/111/77 59/80/59 78/106/78
f 60/81/60 84/108/84 61/82/61
f 85/110/85 84/108/84 60/81/60
f 59/80/59 85/110/85 60/81/60
f 80/101/80 76/112/76 71/92/71
f 86/113/86 87/114/87 88/115/88
f 89/116/89 66/87/66 69/90/69
f 89/116/89 69/90/69 64/85/64
f 71/92/71 90/117/90 72/93/72
f 91/118/91 90/119/90 65/86/65
f 82/104/82 74/103/74 73/120/73
f 66/87/66 89/116/89 73/120/73
f 67/121/67 70/91/70 72/93/72
f 67/121/67 72/93/72 92/122/92
f 67/121/67 92/122/92 68/123/68
f 82/104/82 89/116/89 64/85/64
f 82/104/82 64/85/64 63/84/63
f 89/116/89 82/104/82 73/120/73
f 81/102/81 82/104/82 63/84/63
f 67/88/67 66/87/66 73/120/73
f 92/124/92 93/125/93 94/126/94
f 92/124/92 94/126/94 91/127/91
f 94/126/94 88/115/88 95/128/95
f 94/126/94 95/128/95 96/129/96
f 90/130/90 96/129/96 97/131/97
f 90/130/90 97/131/97 72/132/72
f 72/132/72 97/131/97 93/125/93
f 72/132/72 93/125/93 92/124/92
f 86/113/86 98/133/98 87/114/87
f 87/114/87 95/128/95 88/115/88
f 98/133/98 95/128/95 87/114/87
f 93/125/93 86/113/86 88/115/88
f 93/125/93 88/115/88 94/126/94
f 91/127/91 96/129/96 90/130/90
f 97/131/97 98/133/98 86/113/86
f 97/131/97 86/113/86 93/125/93
f 96/129/96 95/128/95 98/133/98
f 96/129/96 98/133/98 97/131/97
f 69/90/69 91/118/91 65/86/65
f 69/90/69 65/86/65 64/85/64
f 68/89/68 92/134/92 91/118/91
f 68/89/68 91/118/91 69/90/69
f 70/91/70 73/94/73 75/96/75
f 70/91/70 67/121/67 73/94/73
f 99/135/99 100/136/100 101/137/101
f 62/138/62 102/139/102 103/140/103
f 80/141/80 104/142/104 102/139/102
f 80/141/80 102/139/102 76/143/76
f 103/140/103 105/144/105 106/145/106
f 103/140/103 106/145/106 107/146/107
f 107/146/107 106/145/106 108/147/108
f 107/146/107 108/147/108 104/142/104
f 109/148/109 99/135/99 101/137/101
f 109/148/109 101/137/101 110/149/110
f 110/149/110 101/137/101 111/150/111
f 110/149/110 111/150/111 112/151/112
f 112/151/112 111/150/111 113/152/113
f 112/151/112 113/152/113 114/153/114
f 114/153/114 113/152/113 99/135/99
f 114/153/114 99/135/99 109/148/109
f 105/144/105 115/154/115 116/155/116
f 115/154/115 108/147/108 116/155/116
f 105/144/105 116/155/116 106/145/106
f 108/147/108 106/145/106 116/155/116
f 99/135/99 113/152/113 100/136/100
f 100/136/100 111/150/111 101/137/101
f 113/152/113 111/150/111 100/136/100
f 62/138/62 107/146/107 79/156/79
f 79/156/79 107/146/107 104/142/104
f 79/156/79 104/142/104 80/141/80
f 102/139/102 115/154/115 105/144/105
f 102/139/102 105/144/105 103/140/103
f 104/142/104 108/147/108 115/154/115
f 104/142/104 115/154/115 102/139/102
f 65/157/65 112/151/112 76/143/76
f 76/143/76 112/151/112 114/153/114
f 76/143/76 114/153/114 71/158/71
f 71/158/71 114/153/114 109/148/109
f 71/158/71 109/148/109 90/130/90
f 65/157/65 109/148/109 110/149/110
f 75/96/75 77/98/77 80/101/80
f 75/96/75 80/101/80 71/92/71
f 70/91/70 75/96/75 71/92/71
f 62/138/62 103/140/103 107/146/107
f 76/143/76 102/139/102 62/138/62
f 65/157/65 110/149/110 112/151/112
f 90/130/90 109/148/109 65/157/65
f 91/127/91 94/126/94 96/129/96
